<svg width="96" height="96" xmlns="http://www.w3.org/2000/svg" xmlns:xlink="http://www.w3.org/1999/xlink" xml:space="preserve" overflow="hidden"><g transform="translate(-592 -312)"><path d="M640 372C633.4 372 628 366.6 628 360 628 353.4 633.4 348 640 348 646.6 348 652 353.4 652 360 652 366.6 646.6 372 640 372ZM667 352.5C666.4 350.3 665.5 348.2 664.4 346.3L666.9 338.8 661.2 333.1 653.7 335.6C651.7 334.5 649.6 333.6 647.4 333L644 326 636 326 632.5 333C630.3 333.6 628.2 334.5 626.3 335.6L618.8 333.1 613.1 338.8 615.6 346.3C614.5 348.3 613.6 350.4 613 352.6L606 356 606 364 613 367.5C613.6 369.7 614.5 371.8 615.6 373.7L613.1 381.2 618.8 386.9 626.3 384.4C628.3 385.5 630.4 386.4 632.6 387L636.1 394 644.1 394 647.6 387C649.8 386.4 651.9 385.5 653.8 384.4L661.3 386.9 667 381.2 664.5 373.7C665.6 371.7 666.5 369.6 667.1 367.4L674.1 363.9 674.1 355.9 667 352.5Z" fill="#FFFFFF"/></g></svg>